<svg width="110" height="42" viewBox="0 0 110 42" fill="none" xmlns="http://www.w3.org/2000/svg">
<path d="M0.511387 37.685C0.451387 37.715 0.376387 37.655 0.286387 37.505C0.196387 37.355 0.181387 37.25 0.241387 37.19C1.59139 36.38 2.65639 35.15 3.43639 33.5C4.24639 31.88 4.89139 29.78 5.37139 27.2L9.37639 4.52C9.46639 3.92 9.51139 3.44 9.51139 3.08C9.51139 2.42 9.31639 1.985 8.92639 1.775C8.56639 1.535 7.90639 1.415 6.94639 1.415C6.85639 1.415 6.81139 1.325 6.81139 1.145C6.81139 0.965 6.85639 0.875 6.94639 0.875L8.92639 0.919999C10.0664 0.979999 11.0114 1.01 11.7614 1.01C12.6014 1.01 13.6214 0.979999 14.8214 0.919999L16.6664 0.875C16.7564 0.875 16.8014 0.965 16.8014 1.145C16.8014 1.325 16.7564 1.415 16.6664 1.415C15.8264 1.415 15.1814 1.505 14.7314 1.685C14.3114 1.865 13.9964 2.165 13.7864 2.585C13.5764 3.005 13.3814 3.68 13.2014 4.61L9.42139 25.985C9.00139 28.325 8.43139 30.215 7.71139 31.655C7.02139 33.125 6.10639 34.31 4.96639 35.21C3.82639 36.11 2.34139 36.935 0.511387 37.685ZM21.795 29.63C19.875 29.63 18.39 29 17.34 27.74C16.32 26.48 15.81 24.845 15.81 22.835C15.81 21.995 15.9 21.155 16.08 20.315C16.41 18.545 17.04 16.955 17.97 15.545C18.93 14.135 20.1 13.04 21.48 12.26C22.86 11.45 24.315 11.045 25.845 11.045C27.795 11.045 29.295 11.66 30.345 12.89C31.395 14.12 31.92 15.74 31.92 17.75C31.92 18.56 31.83 19.415 31.65 20.315C31.29 22.235 30.585 23.9 29.535 25.31C28.515 26.72 27.315 27.8 25.935 28.55C24.585 29.27 23.205 29.63 21.795 29.63ZM23.325 28.505C24.375 28.505 25.305 27.95 26.115 26.84C26.925 25.73 27.51 24.215 27.87 22.295C28.08 21.275 28.185 20.195 28.185 19.055C28.185 17.075 27.84 15.425 27.15 14.105C26.49 12.785 25.575 12.125 24.405 12.125C23.385 12.125 22.455 12.665 21.615 13.745C20.805 14.825 20.22 16.37 19.86 18.38C19.65 19.64 19.545 20.705 19.545 21.575C19.545 23.585 19.875 25.25 20.535 26.57C21.225 27.86 22.155 28.505 23.325 28.505ZM52.9023 25.445C52.9323 25.415 52.9773 25.4 53.0373 25.4C53.1273 25.4 53.2023 25.46 53.2623 25.58C53.3223 25.67 53.3223 25.76 53.2623 25.85C52.1823 27.08 51.2073 27.98 50.3373 28.55C49.4973 29.12 48.6573 29.405 47.8173 29.405C47.1573 29.405 46.6773 29.225 46.3773 28.865C46.0773 28.505 45.9273 27.935 45.9273 27.155C45.9273 26.585 45.9873 26 46.1073 25.4L46.8723 20.855C45.8223 23.615 44.5923 25.76 43.1823 27.29C41.8023 28.82 40.3323 29.585 38.7723 29.585C36.7323 29.585 35.7123 28.385 35.7123 25.985C35.7123 25.175 35.7873 24.395 35.9373 23.645L37.5573 15.635C37.6473 15.185 37.6923 14.81 37.6923 14.51C37.6923 13.73 37.4373 13.34 36.9273 13.34C36.6273 13.34 36.2673 13.49 35.8473 13.79C35.4273 14.09 34.9323 14.525 34.3623 15.095C34.3023 15.155 34.2423 15.185 34.1823 15.185C34.0923 15.185 34.0173 15.14 33.9573 15.05C33.8973 14.93 33.9123 14.825 34.0023 14.735C35.0523 13.505 35.9523 12.62 36.7023 12.08C37.4823 11.51 38.2773 11.225 39.0873 11.225C40.4073 11.225 41.0673 12.035 41.0673 13.655C41.0673 14.135 40.9923 14.795 40.8423 15.635L39.4023 22.79C39.2223 23.63 39.1323 24.35 39.1323 24.95C39.1323 26.51 39.6723 27.29 40.7523 27.29C41.6523 27.29 42.5823 26.705 43.5423 25.535C44.5023 24.365 45.4023 22.655 46.2423 20.405C47.1123 18.155 47.8173 15.485 48.3573 12.395L48.4023 12.08C48.5523 11.54 49.2723 11.27 50.5623 11.27C51.4623 11.27 51.9123 11.375 51.9123 11.585L51.7323 12.575C51.4323 13.985 51.2673 14.78 51.2373 14.96L49.3923 24.995C49.3323 25.265 49.3023 25.61 49.3023 26.03C49.3023 26.9 49.5723 27.335 50.1123 27.335C50.7723 27.335 51.7023 26.705 52.9023 25.445ZM67.4229 11.225C68.1429 11.225 68.8329 11.495 69.4929 12.035C70.1529 12.575 70.4229 13.19 70.3029 13.88C70.2429 14.3 70.0479 14.69 69.7179 15.05C69.3879 15.38 68.9829 15.545 68.5029 15.545C67.9629 15.545 67.4229 15.275 66.8829 14.735C66.7029 14.585 66.5229 14.45 66.3429 14.33C66.1629 14.21 65.9679 14.15 65.7579 14.15C65.1879 14.15 64.4979 14.975 63.6879 16.625C62.8779 18.245 62.1129 20.21 61.3929 22.52C60.6729 24.8 60.1629 26.81 59.8629 28.55C59.8029 28.79 59.5779 28.985 59.1879 29.135C58.8279 29.285 58.3329 29.36 57.7029 29.36C56.8029 29.36 56.3529 29.255 56.3529 29.045L56.5779 28.1C56.6379 27.86 56.7129 27.545 56.8029 27.155C56.8929 26.735 56.9829 26.24 57.0729 25.67L58.7829 16.22C58.9029 15.44 58.9629 14.945 58.9629 14.735C58.9629 13.775 58.6629 13.295 58.0629 13.295C57.4029 13.295 56.5179 13.88 55.4079 15.05C55.3779 15.08 55.3329 15.095 55.2729 15.095C55.1829 15.095 55.1079 15.05 55.0479 14.96C54.9879 14.84 54.9879 14.735 55.0479 14.645C56.0979 13.445 57.0279 12.575 57.8379 12.035C58.6779 11.495 59.5179 11.225 60.3579 11.225C61.0479 11.225 61.5429 11.435 61.8429 11.855C62.1729 12.245 62.3379 12.86 62.3379 13.7C62.3379 14.21 62.2629 14.915 62.1129 15.815L61.2129 20.945C62.0829 18.065 63.0429 15.725 64.0929 13.925C65.1429 12.125 66.2529 11.225 67.4229 11.225ZM89.9492 25.535C90.0092 25.475 90.0542 25.445 90.0842 25.445C90.1742 25.445 90.2492 25.505 90.3092 25.625C90.3992 25.715 90.3992 25.805 90.3092 25.895C89.2892 27.095 88.3892 27.98 87.6092 28.55C86.8292 29.12 86.0192 29.405 85.1792 29.405C84.5192 29.405 84.0242 29.21 83.6942 28.82C83.3942 28.43 83.2442 27.845 83.2442 27.065C83.2442 26.585 83.3192 25.895 83.4692 24.995L84.7742 17.84C84.9242 17.12 84.9992 16.4 84.9992 15.68C84.9992 14.12 84.4742 13.34 83.4242 13.34C82.5242 13.34 81.5942 13.91 80.6342 15.05C79.7042 16.19 78.8192 17.855 77.9792 20.045C77.1392 22.205 76.4492 24.8 75.9092 27.83L75.7742 28.55C75.6242 29.09 74.9042 29.36 73.6142 29.36C72.7142 29.36 72.2642 29.255 72.2642 29.045L72.4442 28.055C72.7442 26.645 72.9092 25.85 72.9392 25.67L74.7842 15.635C74.8442 15.365 74.8742 15.02 74.8742 14.6C74.8742 13.73 74.6042 13.295 74.0642 13.295C73.4042 13.295 72.4892 13.925 71.3192 15.185C71.2892 15.215 71.2442 15.23 71.1842 15.23C71.0942 15.23 71.0042 15.185 70.9142 15.095C70.8542 14.975 70.8692 14.87 70.9592 14.78C72.0092 13.55 72.9542 12.65 73.7942 12.08C74.6642 11.51 75.5192 11.225 76.3592 11.225C77.0192 11.225 77.4992 11.42 77.7992 11.81C78.1292 12.17 78.2942 12.74 78.2942 13.52C78.2942 13.76 78.2342 14.33 78.1142 15.23L77.3042 19.73C78.3542 16.97 79.5842 14.84 80.9942 13.34C82.4042 11.81 83.8892 11.045 85.4492 11.045C87.4592 11.045 88.4642 12.26 88.4642 14.69C88.4642 15.26 88.3892 16.025 88.2392 16.985L86.7542 24.995C86.6642 25.445 86.6192 25.82 86.6192 26.12C86.6192 26.9 86.8742 27.29 87.3842 27.29C87.9242 27.29 88.7792 26.705 89.9492 25.535ZM107.755 11.18C108.445 11.18 108.97 11.435 109.33 11.945C109.72 12.455 109.915 13.175 109.915 14.105C109.915 16.415 108.715 19.82 106.315 24.32C103.915 28.79 101.17 32.795 98.0798 36.335C94.9898 39.875 92.4548 41.645 90.4748 41.645C88.8848 41.645 88.0898 41 88.0898 39.71C88.0898 39.5 88.1048 39.335 88.1348 39.215C88.2548 38.645 88.5248 38.21 88.9448 37.91C89.3348 37.61 89.8448 37.46 90.4748 37.46C90.9548 37.46 91.5398 37.565 92.2298 37.775C92.9498 37.955 93.4898 38.045 93.8498 38.045C94.4498 38.045 95.0648 37.835 95.6948 37.415C96.5348 36.845 97.5848 35.705 98.8448 33.995V31.925C98.8448 26.105 98.4248 21.59 97.5848 18.38C96.7448 15.17 95.5898 13.565 94.1198 13.565C93.7298 13.565 93.3398 13.7 92.9498 13.97C92.5898 14.24 92.2748 14.6 92.0048 15.05C91.9748 15.14 91.8848 15.185 91.7348 15.185C91.5248 15.185 91.4348 15.095 91.4648 14.915C92.0048 13.805 92.7398 12.92 93.6698 12.26C94.5998 11.57 95.4998 11.225 96.3698 11.225C97.5398 11.225 98.5598 11.915 99.4298 13.295C100.3 14.645 100.96 16.505 101.41 18.875C101.86 21.245 102.085 23.9 102.085 26.84C102.085 27.98 102.07 28.85 102.04 29.45C103.24 27.56 104.29 25.745 105.19 24.005C106.09 22.265 106.645 20.96 106.855 20.09C107.005 19.52 107.08 18.905 107.08 18.245C107.08 17.615 106.99 17.075 106.81 16.625C106.66 16.175 106.435 15.695 106.135 15.185C105.895 14.795 105.715 14.45 105.595 14.15C105.505 13.85 105.46 13.535 105.46 13.205C105.46 12.605 105.67 12.125 106.09 11.765C106.51 11.375 107.065 11.18 107.755 11.18Z" fill="#EB4335"/>
</svg>
