<svg width="460" height="258" viewBox="0 0 460 258" fill="none" xmlns="http://www.w3.org/2000/svg">
<rect width="460" height="258" rx="15" fill="white"/>
<rect x="0.5" y="0.5" width="459" height="257" rx="14.5" stroke="#828282" stroke-opacity="0.52" stroke-dasharray="10 10"/>
<path d="M163.357 185.5H162.355C162.281 185.127 162.146 184.783 161.95 184.467C161.759 184.147 161.517 183.868 161.226 183.63C160.935 183.392 160.605 183.208 160.235 183.076C159.866 182.945 159.466 182.879 159.037 182.879C158.348 182.879 157.719 183.059 157.151 183.417C156.586 183.776 156.134 184.303 155.793 184.999C155.455 185.692 155.287 186.54 155.287 187.545C155.287 188.558 155.455 189.41 155.793 190.102C156.134 190.795 156.586 191.32 157.151 191.679C157.719 192.034 158.348 192.212 159.037 192.212C159.466 192.212 159.866 192.146 160.235 192.015C160.605 191.883 160.935 191.7 161.226 191.466C161.517 191.228 161.759 190.949 161.95 190.63C162.146 190.31 162.281 189.964 162.355 189.591H163.357C163.268 190.092 163.101 190.559 162.856 190.992C162.614 191.422 162.306 191.798 161.929 192.121C161.556 192.444 161.127 192.696 160.64 192.877C160.154 193.059 159.619 193.149 159.037 193.149C158.121 193.149 157.307 192.92 156.597 192.462C155.887 192 155.329 191.35 154.924 190.512C154.523 189.674 154.323 188.685 154.323 187.545C154.323 186.406 154.523 185.417 154.924 184.578C155.329 183.74 155.887 183.092 156.597 182.634C157.307 182.173 158.121 181.942 159.037 181.942C159.619 181.942 160.154 182.032 160.64 182.213C161.127 182.391 161.556 182.643 161.929 182.97C162.306 183.293 162.614 183.669 162.856 184.099C163.101 184.529 163.268 184.996 163.357 185.5ZM166.447 182.091V193H165.499V182.091H166.447ZM168.967 193V184.818H169.92V193H168.967ZM169.452 183.412C169.256 183.412 169.09 183.346 168.951 183.215C168.813 183.08 168.743 182.918 168.743 182.73C168.743 182.542 168.813 182.382 168.951 182.251C169.09 182.116 169.256 182.048 169.452 182.048C169.647 182.048 169.814 182.116 169.952 182.251C170.091 182.382 170.16 182.542 170.16 182.73C170.16 182.918 170.091 183.08 169.952 183.215C169.814 183.346 169.647 183.412 169.452 183.412ZM175.624 193.17C174.893 193.17 174.255 192.988 173.712 192.622C173.172 192.256 172.753 191.755 172.455 191.12C172.156 190.484 172.007 189.76 172.007 188.946C172.007 188.126 172.158 187.396 172.46 186.757C172.765 186.118 173.188 185.617 173.728 185.255C174.268 184.889 174.894 184.706 175.608 184.706C176.155 184.706 176.65 184.813 177.094 185.026C177.538 185.235 177.904 185.532 178.192 185.915C178.483 186.295 178.666 186.739 178.74 187.247H177.781C177.682 186.786 177.442 186.391 177.062 186.065C176.686 185.734 176.206 185.569 175.624 185.569C175.102 185.569 174.64 185.711 174.239 185.995C173.838 186.276 173.524 186.668 173.296 187.173C173.073 187.673 172.961 188.254 172.961 188.914C172.961 189.578 173.071 190.166 173.291 190.678C173.511 191.185 173.82 191.583 174.218 191.871C174.619 192.158 175.088 192.302 175.624 192.302C175.986 192.302 176.317 192.235 176.615 192.1C176.917 191.961 177.169 191.766 177.371 191.514C177.577 191.262 177.716 190.962 177.787 190.614H178.746C178.674 191.107 178.499 191.548 178.218 191.935C177.941 192.318 177.581 192.62 177.137 192.84C176.697 193.06 176.192 193.17 175.624 193.17ZM181.641 189.911L181.63 188.669H181.843L185.678 184.818H186.877L183.089 188.611L183.004 188.627L181.641 189.911ZM180.778 193V182.091H181.726V193H180.778ZM185.875 193L182.551 188.797L183.233 188.142L187.09 193H185.875ZM196.1 184.818V185.644H192.195V184.818H196.1ZM193.415 182.858H194.369V190.864C194.369 191.205 194.427 191.473 194.545 191.668C194.662 191.86 194.814 191.997 195.003 192.078C195.191 192.157 195.391 192.196 195.605 192.196C195.729 192.196 195.835 192.189 195.924 192.174C196.013 192.157 196.091 192.139 196.159 192.121L196.361 192.979C196.269 193.014 196.155 193.046 196.02 193.075C195.885 193.107 195.718 193.123 195.519 193.123C195.171 193.123 194.836 193.046 194.513 192.893C194.193 192.741 193.93 192.513 193.724 192.212C193.518 191.91 193.415 191.535 193.415 191.088V182.858ZM201.345 193.17C200.639 193.17 200.014 192.991 199.47 192.632C198.931 192.274 198.508 191.778 198.203 191.146C197.897 190.511 197.745 189.777 197.745 188.946C197.745 188.108 197.897 187.371 198.203 186.736C198.508 186.097 198.931 185.599 199.47 185.244C200.014 184.886 200.639 184.706 201.345 184.706C202.052 184.706 202.675 184.886 203.215 185.244C203.755 185.603 204.177 186.1 204.483 186.736C204.792 187.371 204.946 188.108 204.946 188.946C204.946 189.777 204.794 190.511 204.488 191.146C204.183 191.778 203.758 192.274 203.215 192.632C202.675 192.991 202.052 193.17 201.345 193.17ZM201.345 192.302C201.914 192.302 202.395 192.15 202.789 191.844C203.183 191.539 203.481 191.132 203.684 190.624C203.89 190.116 203.993 189.557 203.993 188.946C203.993 188.336 203.89 187.775 203.684 187.263C203.481 186.752 203.183 186.342 202.789 186.033C202.395 185.724 201.914 185.569 201.345 185.569C200.781 185.569 200.3 185.724 199.902 186.033C199.508 186.342 199.208 186.752 199.002 187.263C198.799 187.775 198.698 188.336 198.698 188.946C198.698 189.557 198.799 190.116 199.002 190.624C199.208 191.132 199.508 191.539 199.902 191.844C200.296 192.15 200.777 192.302 201.345 192.302ZM216.445 189.873V184.818H217.393V193H216.445V191.642H216.371C216.179 192.061 215.875 192.411 215.46 192.691C215.044 192.968 214.537 193.107 213.936 193.107C213.414 193.107 212.951 192.993 212.546 192.766C212.141 192.535 211.823 192.197 211.593 191.754C211.362 191.31 211.246 190.765 211.246 190.118V184.818H212.195V190.06C212.195 190.699 212.383 191.214 212.759 191.604C213.136 191.991 213.619 192.185 214.208 192.185C214.577 192.185 214.932 192.096 215.273 191.919C215.614 191.741 215.895 191.482 216.115 191.141C216.335 190.797 216.445 190.374 216.445 189.873ZM219.904 196.068V184.818H220.825V186.379H220.937C221.051 186.134 221.207 185.884 221.406 185.628C221.605 185.369 221.867 185.15 222.194 184.973C222.524 184.795 222.94 184.706 223.441 184.706C224.115 184.706 224.705 184.884 225.209 185.239C225.717 185.591 226.111 186.084 226.392 186.72C226.676 187.352 226.818 188.089 226.818 188.93C226.818 189.776 226.676 190.516 226.392 191.152C226.111 191.787 225.717 192.283 225.209 192.638C224.705 192.993 224.119 193.17 223.451 193.17C222.958 193.17 222.544 193.082 222.21 192.904C221.88 192.727 221.612 192.508 221.406 192.249C221.203 191.986 221.047 191.73 220.937 191.482H220.852V196.068H219.904ZM220.841 188.914C220.841 189.575 220.939 190.161 221.134 190.672C221.333 191.18 221.617 191.58 221.986 191.871C222.359 192.158 222.81 192.302 223.339 192.302C223.883 192.302 224.341 192.153 224.714 191.855C225.09 191.553 225.376 191.146 225.571 190.635C225.77 190.124 225.87 189.55 225.87 188.914C225.87 188.286 225.772 187.719 225.577 187.215C225.385 186.711 225.101 186.311 224.724 186.017C224.348 185.718 223.886 185.569 223.339 185.569C222.807 185.569 222.354 185.713 221.981 186.001C221.608 186.285 221.324 186.679 221.129 187.183C220.937 187.684 220.841 188.261 220.841 188.914ZM229.846 182.091V193H228.898V182.091H229.846ZM235.535 193.17C234.828 193.17 234.203 192.991 233.66 192.632C233.12 192.274 232.697 191.778 232.392 191.146C232.087 190.511 231.934 189.777 231.934 188.946C231.934 188.108 232.087 187.371 232.392 186.736C232.697 186.097 233.12 185.599 233.66 185.244C234.203 184.886 234.828 184.706 235.535 184.706C236.242 184.706 236.865 184.886 237.405 185.244C237.944 185.603 238.367 186.1 238.672 186.736C238.981 187.371 239.136 188.108 239.136 188.946C239.136 189.777 238.983 190.511 238.678 191.146C238.372 191.778 237.948 192.274 237.405 192.632C236.865 192.991 236.242 193.17 235.535 193.17ZM235.535 192.302C236.103 192.302 236.584 192.15 236.978 191.844C237.373 191.539 237.671 191.132 237.873 190.624C238.079 190.116 238.182 189.557 238.182 188.946C238.182 188.336 238.079 187.775 237.873 187.263C237.671 186.752 237.373 186.342 236.978 186.033C236.584 185.724 236.103 185.569 235.535 185.569C234.97 185.569 234.489 185.724 234.091 186.033C233.697 186.342 233.397 186.752 233.191 187.263C232.989 187.775 232.887 188.336 232.887 188.946C232.887 189.557 232.989 190.116 233.191 190.624C233.397 191.132 233.697 191.539 234.091 191.844C234.485 192.15 234.967 192.302 235.535 192.302ZM243.502 193.186C243.009 193.186 242.558 193.091 242.149 192.899C241.741 192.703 241.416 192.423 241.174 192.057C240.933 191.688 240.812 191.24 240.812 190.715C240.812 190.31 240.889 189.969 241.041 189.692C241.194 189.415 241.411 189.188 241.691 189.01C241.972 188.833 242.304 188.692 242.687 188.589C243.071 188.487 243.493 188.407 243.955 188.35C244.413 188.293 244.8 188.243 245.116 188.201C245.436 188.158 245.679 188.091 245.846 187.998C246.013 187.906 246.096 187.757 246.096 187.551V187.359C246.096 186.801 245.929 186.363 245.596 186.043C245.265 185.72 244.79 185.559 244.168 185.559C243.579 185.559 243.097 185.688 242.725 185.947C242.355 186.207 242.096 186.512 241.947 186.864L241.047 186.539C241.231 186.091 241.487 185.734 241.814 185.468C242.14 185.198 242.506 185.005 242.911 184.887C243.316 184.767 243.726 184.706 244.141 184.706C244.454 184.706 244.779 184.747 245.116 184.829C245.457 184.911 245.773 185.053 246.064 185.255C246.356 185.454 246.592 185.733 246.773 186.091C246.954 186.446 247.045 186.897 247.045 187.444V193H246.096V191.706H246.038C245.924 191.947 245.755 192.181 245.532 192.409C245.308 192.636 245.027 192.822 244.69 192.968C244.353 193.114 243.957 193.186 243.502 193.186ZM243.63 192.318C244.134 192.318 244.571 192.206 244.94 191.983C245.31 191.759 245.594 191.462 245.793 191.093C245.995 190.72 246.096 190.31 246.096 189.863V188.68C246.025 188.748 245.906 188.808 245.739 188.861C245.576 188.914 245.386 188.962 245.17 189.005C244.956 189.044 244.743 189.078 244.53 189.106C244.317 189.135 244.125 189.159 243.955 189.181C243.493 189.238 243.099 189.326 242.773 189.447C242.446 189.568 242.195 189.735 242.021 189.948C241.847 190.157 241.76 190.427 241.76 190.757C241.76 191.255 241.938 191.64 242.293 191.913C242.648 192.183 243.094 192.318 243.63 192.318ZM252.512 193.17C251.841 193.17 251.254 192.993 250.749 192.638C250.245 192.283 249.851 191.787 249.567 191.152C249.286 190.516 249.146 189.776 249.146 188.93C249.146 188.089 249.286 187.352 249.567 186.72C249.851 186.084 250.247 185.591 250.755 185.239C251.262 184.884 251.854 184.706 252.528 184.706C253.026 184.706 253.439 184.795 253.769 184.973C254.1 185.147 254.364 185.363 254.563 185.623C254.762 185.882 254.917 186.134 255.027 186.379H255.112V182.091H256.065V193H255.138V191.482H255.027C254.917 191.73 254.76 191.986 254.558 192.249C254.355 192.508 254.087 192.727 253.754 192.904C253.423 193.082 253.01 193.17 252.512 193.17ZM252.624 192.302C253.153 192.302 253.604 192.158 253.977 191.871C254.35 191.58 254.634 191.18 254.83 190.672C255.028 190.161 255.128 189.575 255.128 188.914C255.128 188.261 255.03 187.684 254.835 187.183C254.64 186.679 254.355 186.285 253.983 186.001C253.61 185.713 253.157 185.569 252.624 185.569C252.077 185.569 251.616 185.718 251.239 186.017C250.866 186.311 250.582 186.711 250.387 187.215C250.195 187.719 250.099 188.286 250.099 188.914C250.099 189.55 250.197 190.124 250.392 190.635C250.588 191.146 250.872 191.553 251.245 191.855C251.621 192.153 252.081 192.302 252.624 192.302ZM266.351 184.818V185.644H262.33V184.818H266.351ZM263.587 193V183.62C263.587 183.179 263.688 182.808 263.89 182.506C264.096 182.205 264.364 181.975 264.695 181.819C265.025 181.663 265.375 181.585 265.744 181.585C265.992 181.585 266.198 181.606 266.362 181.649C266.529 181.688 266.66 181.727 266.756 181.766L266.479 182.597C266.408 182.576 266.321 182.551 266.218 182.522C266.115 182.494 265.985 182.48 265.829 182.48C265.417 182.48 265.099 182.595 264.876 182.826C264.652 183.057 264.54 183.387 264.54 183.817L264.535 193H263.587ZM268.254 193V184.818H269.208V193H268.254ZM268.739 183.412C268.544 183.412 268.377 183.346 268.238 183.215C268.1 183.08 268.03 182.918 268.03 182.73C268.03 182.542 268.1 182.382 268.238 182.251C268.377 182.116 268.544 182.048 268.739 182.048C268.934 182.048 269.101 182.116 269.24 182.251C269.378 182.382 269.447 182.542 269.447 182.73C269.447 182.918 269.378 183.08 269.24 183.215C269.101 183.346 268.934 183.412 268.739 183.412ZM272.663 182.091V193H271.715V182.091H272.663ZM278.48 193.17C277.717 193.17 277.056 192.993 276.499 192.638C275.941 192.279 275.51 191.784 275.204 191.152C274.902 190.516 274.751 189.784 274.751 188.957C274.751 188.133 274.902 187.402 275.204 186.762C275.51 186.12 275.93 185.617 276.467 185.255C277.006 184.889 277.63 184.706 278.336 184.706C278.78 184.706 279.208 184.788 279.62 184.951C280.032 185.111 280.401 185.358 280.728 185.692C281.058 186.022 281.319 186.439 281.511 186.944C281.703 187.444 281.799 188.037 281.799 188.723V189.191H275.407V188.355H280.829C280.829 187.83 280.723 187.357 280.51 186.938C280.3 186.516 280.007 186.182 279.631 185.937C279.258 185.692 278.826 185.569 278.336 185.569C277.818 185.569 277.361 185.708 276.967 185.985C276.573 186.262 276.264 186.627 276.04 187.082C275.82 187.537 275.708 188.034 275.705 188.574V189.074C275.705 189.724 275.817 190.292 276.04 190.779C276.268 191.262 276.589 191.636 277.005 191.903C277.42 192.169 277.912 192.302 278.48 192.302C278.867 192.302 279.206 192.242 279.497 192.121C279.792 192 280.039 191.839 280.238 191.636C280.44 191.43 280.593 191.205 280.696 190.96L281.596 191.253C281.472 191.597 281.268 191.915 280.984 192.206C280.703 192.498 280.352 192.732 279.929 192.909C279.51 193.083 279.027 193.17 278.48 193.17Z" fill="#4285F4"/>
<path d="M153.364 195.983H282.63V197.006H153.364V195.983Z" fill="#4285F4"/>
<path d="M236 111.798H242M242 111.798H248M242 111.798V106M242 111.798V117.596" stroke="#515050" stroke-width="4.98207" stroke-linecap="round" stroke-linejoin="round"/>
<path d="M246.2 152.383H189.8C188.806 152.383 188 151.604 188 150.643V150.292C188 137.037 198.745 126.292 212 126.292H246.2C247.194 126.292 248 127.071 248 128.032V150.643C248 151.604 247.194 152.383 246.2 152.383Z" stroke="#515050" stroke-width="4.98207" stroke-linecap="round" stroke-linejoin="round"/>
<path d="M188 126.292V107.739C188 106.779 188.806 106 189.8 106H208.334C208.764 106 209.179 106.149 209.506 106.419L218.995 114.278C219.321 114.548 219.736 114.697 220.166 114.697H224" stroke="#515050" stroke-width="4.98207" stroke-linecap="round" stroke-linejoin="round"/>
</svg>
