<svg width="295" height="270" viewBox="0 0 295 270" fill="none" xmlns="http://www.w3.org/2000/svg">
<rect x="0.613525" y="0.404785" width="293.85" height="268.95" rx="15" fill="white"/>
<rect x="1.11353" y="0.904785" width="292.85" height="267.95" rx="14.5" stroke="#828282" stroke-opacity="0.52" stroke-dasharray="10 10"/>
<path d="M92.8953 202.821H91.8939C91.8193 202.448 91.6844 202.104 91.4891 201.788C91.2973 201.468 91.0558 201.19 90.7646 200.952C90.4734 200.714 90.1432 200.529 89.7739 200.398C89.4046 200.266 89.005 200.201 88.5754 200.201C87.8864 200.201 87.2579 200.38 86.6897 200.739C86.1251 201.097 85.6723 201.625 85.3314 202.321C84.994 203.013 84.8254 203.862 84.8254 204.867C84.8254 205.879 84.994 206.731 85.3314 207.424C85.6723 208.116 86.1251 208.642 86.6897 209C87.2579 209.355 87.8864 209.533 88.5754 209.533C89.005 209.533 89.4046 209.467 89.7739 209.336C90.1432 209.204 90.4734 209.022 90.7646 208.787C91.0558 208.549 91.2973 208.271 91.4891 207.951C91.6844 207.631 91.8193 207.285 91.8939 206.912H92.8953C92.8065 207.413 92.6396 207.88 92.3946 208.313C92.1531 208.743 91.8442 209.119 91.4678 209.442C91.0949 209.766 90.6652 210.018 90.1787 210.199C89.6922 210.38 89.1577 210.47 88.5754 210.47C87.6592 210.47 86.846 210.241 86.1357 209.783C85.4255 209.322 84.868 208.672 84.4631 207.834C84.0619 206.996 83.8612 206.007 83.8612 204.867C83.8612 203.727 84.0619 202.738 84.4631 201.9C84.868 201.062 85.4255 200.414 86.1357 199.956C86.846 199.494 87.6592 199.263 88.5754 199.263C89.1577 199.263 89.6922 199.354 90.1787 199.535C90.6652 199.712 91.0949 199.964 91.4678 200.291C91.8442 200.614 92.1531 200.991 92.3946 201.42C92.6396 201.85 92.8065 202.317 92.8953 202.821ZM95.9861 199.412V210.321H95.038V199.412H95.9861ZM98.5057 210.321V202.139H99.4591V210.321H98.5057ZM98.9904 200.733C98.7951 200.733 98.6282 200.668 98.4897 200.536C98.3512 200.401 98.2819 200.24 98.2819 200.051C98.2819 199.863 98.3512 199.703 98.4897 199.572C98.6282 199.437 98.7951 199.37 98.9904 199.37C99.1857 199.37 99.3526 199.437 99.4911 199.572C99.6296 199.703 99.6989 199.863 99.6989 200.051C99.6989 200.24 99.6296 200.401 99.4911 200.536C99.3526 200.668 99.1857 200.733 98.9904 200.733ZM105.163 210.492C104.431 210.492 103.794 210.309 103.25 209.943C102.711 209.577 102.292 209.077 101.993 208.441C101.695 207.805 101.546 207.081 101.546 206.268C101.546 205.447 101.697 204.718 101.999 204.078C102.304 203.439 102.727 202.938 103.266 202.576C103.806 202.21 104.433 202.028 105.147 202.028C105.694 202.028 106.189 202.134 106.633 202.347C107.077 202.557 107.443 202.853 107.73 203.237C108.021 203.617 108.204 204.061 108.279 204.568H107.32C107.221 204.107 106.981 203.713 106.601 203.386C106.225 203.056 105.745 202.891 105.163 202.891C104.641 202.891 104.179 203.033 103.778 203.317C103.376 203.597 103.062 203.99 102.835 204.494C102.611 204.995 102.499 205.575 102.499 206.236C102.499 206.9 102.609 207.487 102.83 207.999C103.05 208.507 103.359 208.904 103.756 209.192C104.158 209.48 104.626 209.623 105.163 209.623C105.525 209.623 105.855 209.556 106.153 209.421C106.455 209.283 106.707 209.087 106.91 208.835C107.116 208.583 107.254 208.283 107.325 207.935H108.284C108.213 208.429 108.037 208.869 107.757 209.256C107.48 209.639 107.119 209.941 106.676 210.161C106.235 210.382 105.731 210.492 105.163 210.492ZM111.179 207.232L111.169 205.991H111.382L115.217 202.139H116.415L112.628 205.932L112.543 205.948L111.179 207.232ZM110.316 210.321V199.412H111.264V210.321H110.316ZM115.414 210.321L112.09 206.119L112.772 205.463L116.628 210.321H115.414ZM125.639 202.139V202.965H121.734V202.139H125.639ZM122.954 200.179H123.907V208.185C123.907 208.526 123.966 208.794 124.083 208.99C124.2 209.181 124.353 209.318 124.541 209.4C124.729 209.478 124.93 209.517 125.143 209.517C125.267 209.517 125.374 209.51 125.463 209.496C125.552 209.478 125.63 209.46 125.697 209.442L125.9 210.3C125.807 210.335 125.694 210.367 125.559 210.396C125.424 210.428 125.257 210.444 125.058 210.444C124.71 210.444 124.374 210.367 124.051 210.215C123.732 210.062 123.469 209.835 123.263 209.533C123.057 209.231 122.954 208.856 122.954 208.409V200.179ZM130.884 210.492C130.177 210.492 129.552 210.312 129.009 209.954C128.469 209.595 128.047 209.1 127.741 208.468C127.436 207.832 127.283 207.099 127.283 206.268C127.283 205.43 127.436 204.693 127.741 204.057C128.047 203.418 128.469 202.921 129.009 202.566C129.552 202.207 130.177 202.028 130.884 202.028C131.591 202.028 132.214 202.207 132.754 202.566C133.293 202.924 133.716 203.421 134.021 204.057C134.33 204.693 134.485 205.43 134.485 206.268C134.485 207.099 134.332 207.832 134.027 208.468C133.721 209.1 133.297 209.595 132.754 209.954C132.214 210.312 131.591 210.492 130.884 210.492ZM130.884 209.623C131.452 209.623 131.933 209.471 132.328 209.165C132.722 208.86 133.02 208.453 133.222 207.946C133.428 207.438 133.531 206.878 133.531 206.268C133.531 205.657 133.428 205.096 133.222 204.584C133.02 204.073 132.722 203.663 132.328 203.354C131.933 203.045 131.452 202.891 130.884 202.891C130.319 202.891 129.838 203.045 129.441 203.354C129.046 203.663 128.746 204.073 128.54 204.584C128.338 205.096 128.237 205.657 128.237 206.268C128.237 206.878 128.338 207.438 128.54 207.946C128.746 208.453 129.046 208.86 129.441 209.165C129.835 209.471 130.316 209.623 130.884 209.623ZM145.984 207.195V202.139H146.932V210.321H145.984V208.963H145.909C145.718 209.382 145.414 209.732 144.998 210.012C144.583 210.289 144.075 210.428 143.475 210.428C142.953 210.428 142.49 210.314 142.085 210.087C141.68 209.856 141.362 209.519 141.131 209.075C140.9 208.631 140.785 208.086 140.785 207.44V202.139H141.733V207.381C141.733 208.02 141.921 208.535 142.298 208.926C142.674 209.313 143.157 209.506 143.747 209.506C144.116 209.506 144.471 209.418 144.812 209.24C145.153 209.062 145.433 208.803 145.654 208.462C145.874 208.118 145.984 207.695 145.984 207.195ZM149.442 213.389V202.139H150.364V203.7H150.476C150.589 203.455 150.746 203.205 150.944 202.949C151.143 202.69 151.406 202.472 151.733 202.294C152.063 202.116 152.479 202.028 152.979 202.028C153.654 202.028 154.243 202.205 154.748 202.56C155.255 202.912 155.65 203.405 155.93 204.041C156.214 204.673 156.356 205.41 156.356 206.252C156.356 207.097 156.214 207.837 155.93 208.473C155.65 209.109 155.255 209.604 154.748 209.959C154.243 210.314 153.657 210.492 152.99 210.492C152.496 210.492 152.083 210.403 151.749 210.225C151.418 210.048 151.15 209.829 150.944 209.57C150.742 209.307 150.586 209.052 150.476 208.803H150.39V213.389H149.442ZM150.38 206.236C150.38 206.896 150.477 207.482 150.673 207.994C150.872 208.501 151.156 208.901 151.525 209.192C151.898 209.48 152.349 209.623 152.878 209.623C153.421 209.623 153.879 209.474 154.252 209.176C154.629 208.874 154.915 208.468 155.11 207.956C155.309 207.445 155.408 206.871 155.408 206.236C155.408 205.607 155.311 205.041 155.115 204.536C154.923 204.032 154.639 203.633 154.263 203.338C153.887 203.04 153.425 202.891 152.878 202.891C152.345 202.891 151.893 203.034 151.52 203.322C151.147 203.606 150.863 204 150.667 204.505C150.476 205.005 150.38 205.582 150.38 206.236ZM159.385 199.412V210.321H158.436V199.412H159.385ZM165.073 210.492C164.367 210.492 163.742 210.312 163.198 209.954C162.659 209.595 162.236 209.1 161.931 208.468C161.625 207.832 161.473 207.099 161.473 206.268C161.473 205.43 161.625 204.693 161.931 204.057C162.236 203.418 162.659 202.921 163.198 202.566C163.742 202.207 164.367 202.028 165.073 202.028C165.78 202.028 166.403 202.207 166.943 202.566C167.483 202.924 167.906 203.421 168.211 204.057C168.52 204.693 168.674 205.43 168.674 206.268C168.674 207.099 168.522 207.832 168.216 208.468C167.911 209.1 167.486 209.595 166.943 209.954C166.403 210.312 165.78 210.492 165.073 210.492ZM165.073 209.623C165.642 209.623 166.123 209.471 166.517 209.165C166.911 208.86 167.21 208.453 167.412 207.946C167.618 207.438 167.721 206.878 167.721 206.268C167.721 205.657 167.618 205.096 167.412 204.584C167.21 204.073 166.911 203.663 166.517 203.354C166.123 203.045 165.642 202.891 165.073 202.891C164.509 202.891 164.028 203.045 163.63 203.354C163.236 203.663 162.936 204.073 162.73 204.584C162.527 205.096 162.426 205.657 162.426 206.268C162.426 206.878 162.527 207.438 162.73 207.946C162.936 208.453 163.236 208.86 163.63 209.165C164.024 209.471 164.505 209.623 165.073 209.623ZM173.041 210.508C172.547 210.508 172.096 210.412 171.688 210.22C171.28 210.025 170.955 209.744 170.713 209.378C170.472 209.009 170.351 208.562 170.351 208.036C170.351 207.631 170.427 207.29 170.58 207.013C170.733 206.736 170.949 206.509 171.23 206.332C171.51 206.154 171.842 206.014 172.226 205.911C172.609 205.808 173.032 205.728 173.494 205.671C173.952 205.614 174.339 205.565 174.655 205.522C174.975 205.479 175.218 205.412 175.385 205.32C175.552 205.227 175.635 205.078 175.635 204.872V204.68C175.635 204.123 175.468 203.684 175.134 203.365C174.804 203.041 174.328 202.88 173.707 202.88C173.117 202.88 172.636 203.009 172.263 203.269C171.894 203.528 171.635 203.833 171.486 204.185L170.585 203.86C170.77 203.413 171.026 203.056 171.352 202.789C171.679 202.519 172.045 202.326 172.45 202.209C172.854 202.088 173.265 202.028 173.68 202.028C173.993 202.028 174.318 202.068 174.655 202.15C174.996 202.232 175.312 202.374 175.603 202.576C175.894 202.775 176.13 203.054 176.312 203.413C176.493 203.768 176.583 204.219 176.583 204.766V210.321H175.635V209.027H175.576C175.463 209.268 175.294 209.503 175.07 209.73C174.847 209.957 174.566 210.144 174.229 210.289C173.891 210.435 173.495 210.508 173.041 210.508ZM173.169 209.639C173.673 209.639 174.11 209.528 174.479 209.304C174.848 209.08 175.133 208.784 175.331 208.414C175.534 208.041 175.635 207.631 175.635 207.184V206.001C175.564 206.069 175.445 206.129 175.278 206.182C175.115 206.236 174.925 206.284 174.708 206.326C174.495 206.365 174.282 206.399 174.069 206.427C173.856 206.456 173.664 206.481 173.494 206.502C173.032 206.559 172.638 206.648 172.311 206.768C171.984 206.889 171.734 207.056 171.56 207.269C171.386 207.479 171.299 207.748 171.299 208.079C171.299 208.576 171.477 208.961 171.832 209.235C172.187 209.505 172.633 209.639 173.169 209.639ZM182.051 210.492C181.38 210.492 180.792 210.314 180.288 209.959C179.784 209.604 179.389 209.109 179.105 208.473C178.825 207.837 178.685 207.097 178.685 206.252C178.685 205.41 178.825 204.673 179.105 204.041C179.389 203.405 179.785 202.912 180.293 202.56C180.801 202.205 181.392 202.028 182.067 202.028C182.564 202.028 182.978 202.116 183.308 202.294C183.638 202.468 183.903 202.685 184.102 202.944C184.301 203.203 184.455 203.455 184.565 203.7H184.65V199.412H185.604V210.321H184.677V208.803H184.565C184.455 209.052 184.299 209.307 184.096 209.57C183.894 209.829 183.626 210.048 183.292 210.225C182.962 210.403 182.548 210.492 182.051 210.492ZM182.163 209.623C182.692 209.623 183.143 209.48 183.516 209.192C183.889 208.901 184.173 208.501 184.368 207.994C184.567 207.482 184.666 206.896 184.666 206.236C184.666 205.582 184.569 205.005 184.373 204.505C184.178 204 183.894 203.606 183.521 203.322C183.148 203.034 182.696 202.891 182.163 202.891C181.616 202.891 181.154 203.04 180.778 203.338C180.405 203.633 180.121 204.032 179.926 204.536C179.734 205.041 179.638 205.607 179.638 206.236C179.638 206.871 179.736 207.445 179.931 207.956C180.126 208.468 180.41 208.874 180.783 209.176C181.16 209.474 181.62 209.623 182.163 209.623ZM195.89 202.139V202.965H191.868V202.139H195.89ZM193.125 210.321V200.941C193.125 200.501 193.226 200.13 193.429 199.828C193.635 199.526 193.903 199.297 194.233 199.141C194.563 198.984 194.913 198.906 195.283 198.906C195.531 198.906 195.737 198.927 195.9 198.97C196.067 199.009 196.199 199.048 196.295 199.087L196.018 199.918C195.947 199.897 195.86 199.872 195.757 199.844C195.654 199.815 195.524 199.801 195.368 199.801C194.956 199.801 194.638 199.916 194.414 200.147C194.191 200.378 194.079 200.708 194.079 201.138L194.073 210.321H193.125ZM197.793 210.321V202.139H198.746V210.321H197.793ZM198.278 200.733C198.082 200.733 197.915 200.668 197.777 200.536C197.638 200.401 197.569 200.24 197.569 200.051C197.569 199.863 197.638 199.703 197.777 199.572C197.915 199.437 198.082 199.37 198.278 199.37C198.473 199.37 198.64 199.437 198.778 199.572C198.917 199.703 198.986 199.863 198.986 200.051C198.986 200.24 198.917 200.401 198.778 200.536C198.64 200.668 198.473 200.733 198.278 200.733ZM202.202 199.412V210.321H201.254V199.412H202.202ZM208.019 210.492C207.255 210.492 206.595 210.314 206.037 209.959C205.48 209.6 205.048 209.105 204.743 208.473C204.441 207.837 204.29 207.106 204.29 206.278C204.29 205.454 204.441 204.723 204.743 204.084C205.048 203.441 205.469 202.938 206.005 202.576C206.545 202.21 207.168 202.028 207.875 202.028C208.319 202.028 208.747 202.109 209.159 202.273C209.571 202.432 209.94 202.679 210.267 203.013C210.597 203.343 210.858 203.761 211.05 204.265C211.241 204.766 211.337 205.359 211.337 206.044V206.513H204.945V205.676H210.368C210.368 205.151 210.261 204.679 210.048 204.259C209.839 203.837 209.546 203.503 209.169 203.258C208.796 203.013 208.365 202.891 207.875 202.891C207.356 202.891 206.9 203.029 206.506 203.306C206.112 203.583 205.803 203.949 205.579 204.403C205.359 204.858 205.247 205.355 205.244 205.895V206.396C205.244 207.045 205.355 207.614 205.579 208.1C205.806 208.583 206.128 208.958 206.543 209.224C206.959 209.49 207.451 209.623 208.019 209.623C208.406 209.623 208.745 209.563 209.036 209.442C209.331 209.322 209.578 209.16 209.777 208.958C209.979 208.752 210.132 208.526 210.235 208.281L211.135 208.574C211.011 208.919 210.806 209.236 210.522 209.528C210.242 209.819 209.89 210.053 209.468 210.231C209.049 210.405 208.566 210.492 208.019 210.492Z" fill="#4285F4"/>
<path d="M82.9024 213.304H212.168V214.327H82.9024V213.304Z" fill="#4285F4"/>
<path d="M183 91.2106V153.64C183 154.871 181.955 155.869 180.667 155.869H115.333C114.045 155.869 113 154.871 113 153.64V91.2106C113 89.9792 114.045 88.981 115.333 88.981H180.667C181.955 88.981 183 89.9792 183 91.2106Z" stroke="#515050" stroke-width="6.63658" stroke-linecap="round" stroke-linejoin="round"/>
<path d="M113 137.289L130.852 129.978C136.843 127.525 143.571 127.596 149.509 130.175L183 144.721" stroke="#515050" stroke-width="6.63658" stroke-linecap="round" stroke-linejoin="round"/>
<path d="M163.555 114.993C159.26 114.993 155.778 111.666 155.778 107.561C155.778 103.456 159.26 100.129 163.555 100.129C167.851 100.129 171.333 103.456 171.333 107.561C171.333 111.666 167.851 114.993 163.555 114.993Z" stroke="#515050" stroke-width="6.63658" stroke-linecap="round" stroke-linejoin="round"/>
</svg>